<svg width="64" height="64" viewBox="0 0 40 40" fill="none" xmlns="http://www.w3.org/2000/svg">
  <rect width="40" height="40" rx="9" fill="#C35B2A"/>
  <path d="M6 11C6 9.9 6.9 9 8 9H19V31C14.5 30 10 30 6 31.5V11Z" fill="#FFF8F0" opacity="0.93"/>
  <path d="M21 9H32C33.1 9 34 9.9 34 11V31.5C29.5 30 25 30 21 31V9Z" fill="#FFF8F0"/>
  <rect x="19" y="9" width="2" height="22" fill="rgba(195,91,42,0.2)"/>
  <rect x="8" y="14" width="8" height="1.5" rx=".75" fill="#C35B2A" opacity=".3"/>
  <rect x="8" y="17.5" width="7" height="1.5" rx=".75" fill="#C35B2A" opacity=".3"/>
  <rect x="8" y="21" width="8" height="1.5" rx=".75" fill="#C35B2A" opacity=".3"/>
  <rect x="23" y="14" width="8" height="1.5" rx=".75" fill="#C35B2A" opacity=".3"/>
  <rect x="23" y="17.5" width="7" height="1.5" rx=".75" fill="#C35B2A" opacity=".3"/>
  <rect x="23" y="21" width="8" height="1.5" rx=".75" fill="#C35B2A" opacity=".3"/>
  <path d="M32 3L32.85 5.15L35 6L32.85 6.85L32 9L31.15 6.85L29 6L31.15 5.15Z" fill="#FFD580"/>
</svg>
